<svg width="49" height="54" viewBox="0 0 49 54" fill="none" xmlns="http://www.w3.org/2000/svg">
<path d="M38.7586 20.8182L44.0718 23.6924L45.1841 24.3173C47.5539 25.6487 47.5539 29.0812 45.1841 30.4126L30.0926 38.8915C26.5925 40.858 22.3303 40.858 18.8303 38.8915L3.73874 30.4126C1.36899 29.0812 1.36899 25.6487 3.73874 24.3173L4.85105 23.6924L9.86978 20.8182M39.9142 33.6152L44.7437 36.0463C47.2344 37.3001 47.3144 40.8494 44.8827 42.2156L30.0926 50.5252C26.5925 52.4916 22.3303 52.4916 18.8303 50.5252L4.25592 42.3368C1.78241 40.9471 1.91871 37.3194 4.48942 36.1218L9.86978 33.6152M30.0926 26.5279L45.1841 18.049C47.5539 16.7176 47.5539 13.2851 45.1841 11.9537L30.0926 3.47482C26.5925 1.50839 22.3303 1.50839 18.8303 3.47482L3.73874 11.9537C1.36899 13.2851 1.36899 16.7176 3.73874 18.049L18.8303 26.5279C22.3303 28.4944 26.5925 28.4944 30.0926 26.5279Z" stroke="#4F77FF" stroke-width="3.75"/>
</svg>
